<?xml version="1.0" encoding="UTF-8" standalone="no"?>
<!-- Generator: Adobe Illustrator 19.2.0, SVG Export Plug-In . SVG Version: 6.00 Build 0)  -->

<svg
   xmlns:dc="http://purl.org/dc/elements/1.1/"
   xmlns:cc="http://creativecommons.org/ns#"
   xmlns:rdf="http://www.w3.org/1999/02/22-rdf-syntax-ns#"
   xmlns:svg="http://www.w3.org/2000/svg"
   xmlns="http://www.w3.org/2000/svg"
   xmlns:sodipodi="http://sodipodi.sourceforge.net/DTD/sodipodi-0.dtd"
   xmlns:inkscape="http://www.inkscape.org/namespaces/inkscape"
   version="1.1"
   id="Слой_1"
   x="0px"
   y="0px"
   viewBox="0 0 208.06092 200.2351"
   xml:space="preserve"
   inkscape:version="0.91 r"
   sodipodi:docname="devico_001.svg"
   width="208.06093"
   height="200.23509"><metadata
     id="metadata19"><rdf:RDF><cc:Work
         rdf:about=""><dc:format>image/svg+xml</dc:format><dc:type
           rdf:resource="http://purl.org/dc/dcmitype/StillImage" /><dc:title></dc:title></cc:Work></rdf:RDF></metadata><defs
     id="defs17" /><sodipodi:namedview
     pagecolor="#ffffff"
     bordercolor="#666666"
     borderopacity="1"
     objecttolerance="10"
     gridtolerance="10"
     guidetolerance="10"
     inkscape:pageopacity="0"
     inkscape:pageshadow="2"
     inkscape:window-width="1366"
     inkscape:window-height="712"
     id="namedview15"
     showgrid="false"
     fit-margin-top="0"
     fit-margin-left="0"
     fit-margin-right="0"
     fit-margin-bottom="0"
     inkscape:zoom="0.39643878"
     inkscape:cx="-23.349196"
     inkscape:cy="100.12444"
     inkscape:window-x="0"
     inkscape:window-y="27"
     inkscape:window-maximized="1"
     inkscape:current-layer="Слой_1" /><style
     type="text/css"
     id="style3">
	.st0{fill:#ffffff;}
	.st1{fill:none;stroke:#E6DE0F;stroke-width:0.5;}
	.st2{fill:none;stroke:#00325E;stroke-width:0.5;}
	.st3{fill:none;stroke:#FC5000;stroke-width:0.5;}
	.st4{fill:none;stroke:#005EC4;stroke-width:0.5;}
</style><path
     class="st0"
     d="m 16.400792,86.860651 12.4,0 c 2.9,0 5,0.2 6.5,0.7 2,0.6 3.7,1.7 5.2,3.2 1.4,1.5 2.6,3.4 3.3,5.6 0.7,2.2 1.1,4.899999 1.1,8.099999 0,2.8 -0.4,5.3 -1.1,7.3 -0.9,2.5 -2.1,4.5 -3.7,6.1 -1.2,1.2 -2.8,2.1 -4.9,2.7 -1.5,0.5 -3.6,0.7 -6.1,0.7 l -12.8,0 0,-5.8 11.9,0 c 1.9,0 3.3,-0.1 4.2,-0.3 1.1,-0.3 2.1,-0.8 2.8,-1.4 0.7,-0.7 1.3,-1.8 1.8,-3.3 0.5,-1.5 0.7,-3.6 0.7,-6.3 0,-2.7 -0.2,-4.699999 -0.7,-6.099999 -0.5,-1.4 -1.1,-2.5 -2,-3.3 -0.8,-0.8 -1.9,-1.3 -3.2,-1.6 -0.9,-0.2 -2.8,-0.3 -5.7,-0.3 l -9.8,0 0,-6 z M 161.40079,104.06065 c 0,-3.4 0.5,-6.299999 1.6,-8.599999 0.8,-1.7 1.8,-3.3 3.2,-4.7 1.4,-1.4 2.8,-2.4 4.5,-3.1 2.1,-0.9 4.6,-1.4 7.4,-1.4 5.1,0 9.1,1.6 12.2,4.7 3,3.1 4.5,7.5 4.5,13.099999 0,5.6 -1.5,9.9 -4.5,13.1 -3,3.1 -7.1,4.7 -12.1,4.7 l -0.1,0 0,-6 0,0 c 2.8,0 5,-1 6.8,-3 1.8,-2 2.7,-5 2.7,-9 0,-3.899999 -0.9,-6.899999 -2.6,-8.799999 -1.7,-2 -4,-2.9 -6.9,-2.9 -2.9,0 -5.2,1 -6.9,2.9 -1.8,2 -2.6,4.9 -2.6,8.899999 l 0,0 -7.2,0 z m -11.2,4.5 6.7,2.1 c -1,3.8 -2.7,6.6 -5.2,8.4 -2.4,1.8 -5.4,2.7 -9.1,2.7 -4.6,0 -8.3,-1.6 -11.3,-4.7 -2.9,-3.1 -4.4,-7.4 -4.4,-12.8 0,-5.699999 1.5,-10.099999 4.4,-13.299999 2.9,-3.2 6.8,-4.8 11.7,-4.8 4.2,0 7.6,1.2 10.3,3.7 1.6,1.5 2.7,3.6 3.5,6.3 l -6.9,1.6 c -0.4,-1.8 -1.3,-3.2 -2.6,-4.2 -1.3,-1 -2.9,-1.6 -4.7,-1.6 -2.6,0 -4.6,0.9 -6.2,2.7 -1.6,1.8 -2.4,4.8 -2.4,8.899999 0,4.3 0.8,7.5 2.4,9.3 1.6,1.9 3.6,2.8 6.1,2.8 1.8,0 3.4,-0.6 4.8,-1.8 1.3,-0.9 2.3,-2.8 2.9,-5.3 z m -35.6,12.7 0,-34.399999 6.9,0 0,34.399999 -6.9,0 z m -22.999998,0 -12.3,-34.399999 7.5,0 8.7,25.499999 8.399998,-25.499999 7.4,0 -12.199998,34.399999 -7.5,0 z m -43,-34.399999 27.7,0 0,5.8 -27.7,0 0,-5.8 z m 0,13.399999 26.4,0 0,5.8 -26.4,0 0,-5.8 z m 0,15.1 28.3,0 0,5.8 -28.3,0 0,-5.8 z M 118.10079,82.560651 c 2.4,0 4.3,-1.9 4.3,-4.3 0,-2.3 -1.9,-4.3 -4.3,-4.3 -2.3,0 -4.3,1.9 -4.3,4.3 0,2.4 1.9,4.3 4.3,4.3 z m -11,-2.1 c 1.2,0 2.1,-0.9 2.1,-2.1 0,-1.2 -0.9,-2.1 -2.1,-2.1 -1.2,0 -2.1,1 -2.1,2.1 0,1.2 1,2.1 2.1,2.1 z m 0,0.7 c 1.6,0 2.8,-1.2 2.8,-2.8 0,-1.6 -1.2,-2.8 -2.8,-2.8 -1.6,0 -2.8,1.3 -2.8,2.8 0,1.6 1.3,2.8 2.8,2.8 z m -7.899998,-1.4 c 0.799998,0 1.399998,-0.6 1.399998,-1.4 0,-0.8 -0.6,-1.4 -1.399998,-1.4 -0.8,0 -1.4,0.7 -1.4,1.4 0,0.8 0.6,1.4 1.4,1.4 z"
     id="path5"
     inkscape:connector-curvature="0"
     style="fill:#ffffff" /><path
     class="st1"
     d="m 74.200792,3.2606509 c -41.6,9.3000001 -63.9,57.9000001 -64,96.1000001 -0.2,60.199999 43.1,99.499999 93.099998,100.599999 58.6,1.3 105.3,-49.5 104.5,-102.399999 -0.7,-52.8 -47.3,-99.9000001 -111.499998,-97.20000008 -7.4,0.3 -14.8,1.19999998 -22.1,2.89999998 z"
     id="path7"
     inkscape:connector-curvature="0"
     style="fill:none;stroke:#e6de0f;stroke-width:0.5" /><path
     class="st2"
     d="m 102.00079,3.7606509 c -1.2,-0.1 -2.399998,-0.1 -3.599998,-0.1 -59.8,-0.1 -101.8,57.3000001 -97.90000004,111.0999991 3.50000004,48.9 51.00000004,81.4 100.89999804,80.8 58.2,-0.7 95.1,-48 95,-96.499999 0,-2.3 -0.1,-4.6 -0.3,-7 -3.6,-47.4 -44.3,-86.4000001 -94.1,-88.3000001 z"
     id="path9"
     inkscape:connector-curvature="0"
     style="fill:none;stroke:#00325e;stroke-width:0.5" /><path
     class="st3"
     d="m 123.10079,2.4606509 c -6.6,-1.49999998 -13.2,-2.19999998 -19.7,-2.19999998 -50.399998,0.1 -93.099998,42.90000008 -93.199998,91.80000008 -0.1,48.899999 39.8,92.599999 93.599998,92.699999 48.7,0.1 92.7,-34 94.1,-86.599999 1.2,-43.8 -28.8,-85.4 -74.8,-95.7000001 z"
     id="path11"
     inkscape:connector-curvature="0"
     style="fill:none;stroke:#fc5000;stroke-width:0.5" /><path
     class="st4"
     d="m 130.90079,9.3606509 c -9.7,-2.7 -19.8,-4.2 -29.8,-4.1 -61.499998,0.7 -95.799998,62.8000001 -92.599998,107.8999991 3.4,48.4 45.4,79.7 90.8,80.5 51.699998,1 99.799998,-37 100.499998,-91.4 0.6,-41.199999 -26.6,-80.899999 -68.9,-92.8999991 z"
     id="path13"
     inkscape:connector-curvature="0"
     style="fill:none;stroke:#005ec4;stroke-width:0.5" /></svg>